<svg
  width="159"
  height="50"
  viewBox="0 0 159 50"
  fill="none"
  xmlns="http://www.w3.org/2000/svg"
>
  <path
    d="M0 12C0 5.37258 5.37258 0 12 0H147C153.627 0 159 5.37258 159 12V38C159 44.6274 153.627 50 147 50H0V12Z"
    fill="#FFAE00"
  />
  <path
    d="M106.992 37.2423L107.214 34.8155C107.442 32.4798 107.858 30.2467 108.462 28.1161C109.077 25.9741 109.886 23.9632 110.889 22.0833C111.903 20.2033 113.116 18.4886 114.529 16.9391H106.77L106.616 19.1608H102.19V12.3589H120.254V16.9391C119.024 18.3633 117.998 19.7476 117.178 21.092C116.369 22.4365 115.708 23.8094 115.196 25.2108C114.683 26.6008 114.273 28.0819 113.965 29.6543C113.658 31.2152 113.407 32.9356 113.213 34.8155L112.991 37.2423H106.992Z"
    fill="#1B0707"
  />
  <path
    d="M94.2498 37.6012C92.4268 37.6012 90.826 37.1968 89.4474 36.3878C88.0688 35.5789 86.9921 34.4225 86.2173 32.9185C85.4539 31.4146 85.0723 29.6258 85.0723 27.5522V22.5447C85.0723 20.3685 85.5166 18.4943 86.4053 16.922C87.294 15.3497 88.5188 14.1363 90.0797 13.2818C91.652 12.4273 93.4579 12 95.4973 12C96.4886 12 97.3659 12.0855 98.1292 12.2564C98.8926 12.4159 99.7471 12.6836 100.693 13.0596L99.6845 17.4005C99.0236 17.2068 98.3514 17.0416 97.6678 16.9049C96.9956 16.7682 96.3405 16.6998 95.7024 16.6998C94.1301 16.6998 92.9794 17.1727 92.2502 18.1183C91.521 19.0526 91.1621 20.4027 91.1735 22.1687L91.2248 22.2542C91.7261 21.6845 92.3869 21.2401 93.2072 20.9211C94.0276 20.6021 94.9448 20.4426 95.9588 20.4426C97.4627 20.4426 98.7445 20.8072 99.8041 21.5364C100.864 22.2656 101.667 23.2739 102.214 24.5614C102.772 25.8488 103.051 27.3243 103.051 28.9877C103.051 30.6284 102.67 32.0982 101.906 33.397C101.154 34.6959 100.117 35.7213 98.7958 36.4733C97.4741 37.2253 95.9588 37.6012 94.2498 37.6012ZM94.0959 33.0381C94.6884 33.0381 95.2011 32.8501 95.6341 32.4742C96.0784 32.0982 96.4259 31.5969 96.6766 30.9702C96.9272 30.3322 97.0526 29.6315 97.0526 28.8681C97.0526 27.7174 96.7791 26.7888 96.2322 26.0824C95.6853 25.3646 94.8878 25.0057 93.8396 25.0057C93.4864 25.0057 93.1332 25.0513 92.78 25.1424C92.4382 25.2222 92.1192 25.3418 91.8229 25.5013C91.5267 25.6608 91.2703 25.8602 91.0539 26.0995V27.5522C91.0539 29.3068 91.3273 30.6626 91.8742 31.6196C92.4211 32.5653 93.1617 33.0381 94.0959 33.0381Z"
    fill="#1B0707"
  />
  <path
    d="M71.0501 37.6012C69.2613 37.6012 67.8029 37.0942 66.675 36.0802C65.547 35.0661 64.983 33.716 64.983 32.0298C64.983 30.298 65.678 28.8795 67.068 27.7743C68.4695 26.6691 70.5829 26.1165 73.4085 26.1165H75.3397V25.0228C75.3397 24.2822 75.129 23.6555 74.7074 23.1428C74.2858 22.6187 73.6193 22.3567 72.7078 22.3567C72.3205 22.3567 71.9559 22.4079 71.6141 22.5105C71.2837 22.6016 70.9817 22.7384 70.7083 22.9206L70.2981 25.2791H66.0768L65.9914 20.1349C67.0396 19.6678 68.1333 19.2633 69.2727 18.9215C70.4234 18.5797 71.7052 18.4088 73.118 18.4088C75.636 18.4088 77.6355 18.9899 79.1167 20.152C80.5979 21.3028 81.3384 22.9491 81.3384 25.0911V31.9101C81.3384 32.1722 81.3384 32.4285 81.3384 32.6792C81.3498 32.9299 81.3783 33.1691 81.4239 33.397L83.4234 33.7388V37.2423H76.4164C76.2683 37.0372 76.1088 36.7638 75.9379 36.422C75.767 36.0802 75.6474 35.7384 75.579 35.3966C75.0207 36.0916 74.3941 36.6328 73.6991 37.0201C73.0041 37.4075 72.1211 37.6012 71.0501 37.6012ZM72.8958 33.3628C73.3288 33.3628 73.7617 33.2774 74.1947 33.1065C74.639 32.9242 75.0207 32.6564 75.3397 32.3032V29.6371H73.4769C72.668 29.6371 72.0413 29.8137 71.597 30.1669C71.164 30.5201 70.9475 30.9873 70.9475 31.5683C70.9475 32.1266 71.1298 32.5653 71.4944 32.8843C71.859 33.2033 72.3262 33.3628 72.8958 33.3628Z"
    fill="#1B0707"
  />
  <path
    d="M61.589 37.6354C59.6521 37.6354 58.1766 37.1227 57.1626 36.0973C56.1599 35.0605 55.6586 33.4255 55.6586 31.1924V22.8865H53.3514V18.7507H55.6586V14.1876H61.6231V18.7507H64.6481V22.8865H61.6231V31.1753C61.6231 31.7792 61.7599 32.2007 62.0333 32.44C62.3067 32.6792 62.6827 32.7989 63.1613 32.7989C63.3663 32.7989 63.5714 32.7875 63.7765 32.7647C63.9816 32.7419 64.1867 32.7134 64.3918 32.6792L64.8019 37.1569C64.2778 37.305 63.748 37.419 63.2125 37.4987C62.6884 37.5899 62.1472 37.6354 61.589 37.6354Z"
    fill="#1B0707"
  />
  <path
    d="M44.8987 37.6012C42.996 37.6012 41.3667 37.2081 40.0109 36.422C38.6664 35.6244 37.6353 34.5193 36.9175 33.1065C36.2111 31.6823 35.8579 30.0359 35.8579 28.1674V27.8256C35.8579 25.9798 36.2111 24.3505 36.9175 22.9377C37.6353 21.5249 38.6664 20.4198 40.0109 19.6222C41.3553 18.8133 42.9732 18.4088 44.8645 18.4088C46.7672 18.4088 48.3851 18.8076 49.7181 19.6051C51.0626 20.4027 52.088 21.5079 52.7944 22.9206C53.5122 24.3334 53.8711 25.9684 53.8711 27.8256V28.1674C53.8711 30.0245 53.5122 31.6652 52.7944 33.0894C52.088 34.5022 51.0626 35.6073 49.7181 36.4049C48.3851 37.2024 46.7786 37.6012 44.8987 37.6012ZM44.8987 33.0381C45.6279 33.0381 46.2089 32.8444 46.6419 32.457C47.0862 32.0583 47.4052 31.4943 47.5989 30.7651C47.804 30.0359 47.9066 29.17 47.9066 28.1674V27.8256C47.9066 26.8571 47.804 26.014 47.5989 25.2962C47.4052 24.567 47.0862 24.003 46.6419 23.6043C46.1975 23.1941 45.6051 22.989 44.8645 22.989C44.1353 22.989 43.5485 23.1941 43.1042 23.6043C42.6598 24.003 42.3408 24.567 42.1471 25.2962C41.9534 26.014 41.8566 26.8571 41.8566 27.8256V28.1674C41.8566 29.1814 41.9534 30.053 42.1471 30.7822C42.3408 31.5114 42.6598 32.0696 43.1042 32.457C43.5485 32.8444 44.1467 33.0381 44.8987 33.0381Z"
    fill="#1B0707"
  />
  <path
    d="M13.3136 37.2423V33.7388L15.8942 33.1919V16.4264L13.3136 15.8795V12.3418H25.5502C27.5213 12.3418 29.2304 12.6551 30.6773 13.2818C32.1243 13.9084 33.2409 14.8028 34.027 15.9649C34.8132 17.1157 35.2063 18.4829 35.2063 20.0666C35.2063 21.525 34.8075 22.8808 34.0099 24.1341C33.2238 25.3874 32.1414 26.3957 30.7628 27.1591C29.3842 27.911 27.8119 28.2813 26.0459 28.2699L21.8929 28.2187V33.1919L24.4736 33.7388V37.2423H13.3136ZM29.0708 37.2423L25.7211 27.5351L30.9337 25.7577L33.9587 33.1578L36.3171 33.7559V37.2423H29.0708ZM21.8929 23.6214H25.6186C26.7807 23.6214 27.6751 23.3536 28.3018 22.8181C28.9284 22.2713 29.2417 21.4851 29.2417 20.4597C29.2417 19.4001 28.9227 18.5513 28.2847 17.9132C27.6467 17.2638 26.7352 16.9391 25.5502 16.9391H21.8929V23.6214Z"
    fill="#1B0707"
  />
  <path
    d="M120.166 31V30.1285L120.803 29.9925V25.8221L120.166 25.6861V24.8103H122.321L124.804 28.7724H124.829V25.8221L124.017 25.6861V24.8103H126.793V25.6861L126.151 25.8221V31H124.68L122.151 27.123H122.126V29.9925L122.942 30.1285V31H120.166Z"
    fill="#1B0707"
  />
  <path
    d="M127.371 31V30.1285L128.013 29.9925V25.8221L127.371 25.6861V24.8103H132.315V26.5958H131.189L131.155 25.9582H129.505V27.2293H131.482V28.3728H129.505V29.848H131.235L131.269 29.1805H132.383V31H127.371Z"
    fill="#1B0707"
  />
  <path
    d="M135.034 31L133.605 25.7499L132.904 25.6861V24.8103H135.697V25.6861L135.008 25.7839L135.782 28.951H135.807L135.91 28.5471L137.121 24.8103H138.15L139.425 28.7214L139.514 28.9892H139.54L139.612 28.7214L140.335 25.7839L139.625 25.6861V24.8103H142.363V25.6861L141.704 25.7499L140.212 31H138.881L137.814 27.7989L137.682 27.3568H137.657L137.491 27.8244L136.407 31H135.034Z"
    fill="#1B0707"
  />
  <path
    d="M145.379 31.0893C144.874 31.0893 144.427 31.0411 144.035 30.9448C143.644 30.8484 143.255 30.667 142.866 30.4006V28.7937H144.018L144.146 29.6184C144.237 29.7204 144.397 29.8069 144.626 29.8777C144.856 29.9457 145.107 29.9798 145.379 29.9798C145.569 29.9798 145.727 29.9571 145.855 29.9117C145.983 29.8636 146.079 29.7941 146.144 29.7034C146.209 29.6127 146.242 29.5036 146.242 29.3761C146.242 29.2542 146.211 29.1451 146.148 29.0487C146.089 28.9524 145.99 28.8617 145.851 28.7767C145.712 28.6888 145.525 28.5995 145.29 28.5089C144.76 28.3388 144.325 28.1659 143.984 27.9902C143.644 27.8145 143.391 27.6062 143.224 27.3653C143.059 27.1244 142.977 26.8254 142.977 26.4683C142.977 26.1254 143.075 25.8264 143.27 25.5713C143.466 25.3134 143.735 25.1108 144.078 24.9634C144.421 24.816 144.813 24.7381 145.256 24.7296C145.76 24.7182 146.206 24.7693 146.595 24.8826C146.983 24.9931 147.326 25.1618 147.623 25.3885V26.8807H146.518L146.344 26.0517C146.248 26.0035 146.11 25.9596 145.932 25.9199C145.753 25.8802 145.563 25.8604 145.362 25.8604C145.189 25.8604 145.035 25.8831 144.898 25.9284C144.765 25.9737 144.659 26.0418 144.58 26.1325C144.503 26.2231 144.465 26.3365 144.465 26.4725C144.465 26.5831 144.497 26.6823 144.563 26.7701C144.628 26.8552 144.743 26.9416 144.907 27.0294C145.071 27.1145 145.301 27.2137 145.596 27.327C146.299 27.5339 146.831 27.7932 147.194 28.105C147.56 28.4139 147.743 28.8348 147.743 29.3676C147.743 29.7332 147.643 30.0449 147.445 30.3028C147.247 30.5579 146.97 30.7535 146.616 30.8895C146.262 31.0227 145.849 31.0893 145.379 31.0893Z"
    fill="#1B0707"
  />
  <rect x="120" y="35" width="28" height="2" fill="#1B0707" />
</svg>
